<svg width="669" height="102" viewBox="0 0 669 102" fill="none" xmlns="http://www.w3.org/2000/svg">
<path d="M493.739 101.924C486.446 101.924 479.875 100.231 474.076 96.8463C468.276 93.4612 463.721 88.7073 460.436 82.5844C457.151 76.4615 455.508 69.3928 455.508 61.3783C455.508 53.3638 457.151 45.9964 460.436 39.8735C463.721 33.7506 468.276 28.9966 474.076 25.6116C479.875 22.2266 486.446 20.5341 493.739 20.5341C502.998 20.5341 510.689 22.9235 516.861 27.7024C523.034 32.4812 526.942 38.8779 528.584 46.8924H515.318C514.298 42.0638 511.784 38.3054 507.752 35.6422C503.744 32.979 499.015 31.6349 493.564 31.6349C489.134 31.6349 485.027 32.7301 481.219 34.9453C477.411 37.1605 474.374 40.4459 472.109 44.8017C469.844 49.1823 468.724 54.6331 468.724 61.2289C468.724 66.0576 469.396 70.3635 470.74 74.097C472.084 77.8553 473.877 80.9666 476.141 83.4307C478.406 85.8947 481.045 87.7864 484.081 89.0557C487.118 90.35 490.279 90.9723 493.564 90.9723C497.173 90.9723 500.484 90.35 503.52 89.1304C506.557 87.8859 509.096 86.1187 511.161 83.804C513.227 81.4892 514.596 78.7514 515.318 75.5655H528.584C526.942 83.3809 523.009 89.7278 516.787 94.6062C510.564 99.4846 502.873 101.924 493.739 101.924Z" fill="black"/>
<path d="M576.547 101.924C569.255 101.924 562.709 100.256 556.959 96.9209C551.209 93.5857 546.679 88.8566 543.394 82.7337C540.109 76.6108 538.466 69.4924 538.466 61.3783C538.466 53.2642 540.133 45.8221 543.469 39.7241C546.804 33.6012 551.384 28.8722 557.183 25.5369C562.982 22.2017 569.553 20.5341 576.846 20.5341C584.139 20.5341 590.635 22.2017 596.36 25.5369C602.059 28.8722 606.589 33.5764 609.924 39.6495C613.26 45.7226 614.927 52.9157 614.927 61.2289C614.927 69.5421 613.235 76.6357 609.85 82.7337C606.465 88.8566 601.885 93.5857 596.136 96.9209C590.386 100.256 583.84 101.924 576.547 101.924ZM576.547 90.8229C580.978 90.8229 585.084 89.7278 588.893 87.5126C592.701 85.2974 595.787 81.987 598.152 77.5567C600.516 73.1263 601.686 67.7003 601.686 61.204C601.686 54.7078 600.541 49.1574 598.226 44.7768C595.912 40.421 592.875 37.1107 589.117 34.9204C585.358 32.7052 581.276 31.6101 576.871 31.6101C572.465 31.6101 568.309 32.7052 564.451 34.9204C560.593 37.1356 557.507 40.421 555.192 44.7768C552.877 49.1574 551.732 54.6082 551.732 61.204C551.732 67.7998 552.877 73.1263 555.192 77.5567C557.507 81.987 560.543 85.2974 564.301 87.5126C568.06 89.7278 572.142 90.8229 576.547 90.8229Z" fill="black"/>
<path d="M645.492 40.6699L646.338 29.8927C646.487 28.0757 644.446 26.9059 642.953 27.9512L634.316 33.9995C633.271 34.7213 631.852 34.3977 631.205 33.3026L629.537 30.3905C628.89 29.2704 629.363 27.8517 630.533 27.3539L639.842 23.272C641.559 22.5253 641.559 20.0861 639.842 19.3394L630.632 15.3321C629.463 14.8343 628.99 13.4156 629.612 12.2956L631.105 9.63235C631.727 8.53719 633.171 8.18874 634.216 8.91054L643.003 14.9837C644.496 16.029 646.537 14.8343 646.363 13.0174L645.392 2.31474C645.268 1.04536 646.263 -0.0249023 647.533 -0.0249023H650.644C651.913 -0.0249023 652.909 1.07025 652.784 2.33963L651.739 12.9676C651.565 14.7845 653.606 16.0041 655.099 14.9339L663.736 8.93543C664.781 8.21363 666.225 8.53719 666.847 9.65724L668.266 12.196C668.863 13.2911 668.415 14.685 667.27 15.2077L657.912 19.414C656.219 20.1856 656.219 22.5999 657.912 23.3466L667.32 27.4783C668.49 28.001 668.963 29.3949 668.34 30.49L666.847 33.1532C666.225 34.2484 664.781 34.5968 663.761 33.875L655.074 27.9015C653.581 26.8561 651.54 28.0508 651.714 29.8678L652.685 40.5953C652.809 41.8647 651.814 42.9349 650.544 42.9349H647.632C646.388 42.9349 645.392 41.8647 645.492 40.6202V40.6699Z" fill="black"/>
<path d="M31.3114 101.924C24.84 101.924 19.2647 100.679 14.5854 98.2152C9.90615 95.7511 6.29712 92.1918 3.78325 87.5872C1.26938 82.9577 0 77.4571 0 71.0853H13.1169C13.1169 74.6943 13.7143 77.9549 14.8841 80.867C16.0539 83.804 17.9704 86.1187 20.5839 87.8112C23.1973 89.5038 26.7317 90.35 31.1372 90.35C35.5427 90.35 38.8779 89.5286 41.3918 87.8859C43.9056 86.2432 45.6977 84.0031 46.7929 81.1657C47.8631 78.3282 48.4107 75.1174 48.4107 71.5333V20.5092H61.3534V71.5333C61.3534 81.1906 58.7151 88.6824 53.4135 93.959C48.112 99.2606 40.7446 101.899 31.2865 101.899L31.3114 101.924Z" fill="black"/>
<path d="M200.437 101.924C194.165 101.924 188.913 100.829 184.707 98.6134C180.501 96.3982 177.365 93.4861 175.299 89.8273C173.233 86.1685 172.212 82.1862 172.212 77.8802C172.212 72.6285 173.581 68.1981 176.294 64.5393C179.007 60.8805 182.865 58.1177 187.868 56.2261C192.846 54.3345 198.745 53.3638 205.515 53.3638H226.024C226.024 48.5351 225.277 44.503 223.784 41.2673C222.291 38.0316 220.125 35.5924 217.313 33.9497C214.475 32.307 210.966 31.4856 206.759 31.4856C201.831 31.4856 197.55 32.7301 193.966 35.1942C190.357 37.6583 188.167 41.3171 187.345 46.1457H174.079C174.701 40.5953 176.568 35.9409 179.704 32.1825C182.84 28.4242 186.823 25.5618 191.651 23.5458C196.48 21.5297 201.508 20.5341 206.759 20.5341C213.953 20.5341 219.951 21.8532 224.73 24.4667C229.509 27.0801 233.068 30.7389 235.457 35.4182C237.822 40.0975 238.992 45.623 238.992 51.9948V100.107H227.418L226.646 86.3925C225.626 88.558 224.307 90.574 222.714 92.4905C221.121 94.3822 219.254 96.0249 217.089 97.4187C214.923 98.8126 212.484 99.9077 209.771 100.729C207.058 101.55 203.947 101.974 200.437 101.974V101.924ZM202.454 90.9723C206.063 90.9723 209.323 90.2256 212.235 88.7322C215.172 87.2388 217.661 85.1729 219.702 82.5595C221.768 79.9461 223.336 77.034 224.406 73.8481C225.477 70.6622 226.024 67.3269 226.024 63.8175V63.3446H206.585C201.557 63.3446 197.476 63.9419 194.414 65.1117C191.328 66.3065 189.113 67.9492 187.793 70.0399C186.449 72.1556 185.777 74.545 185.777 77.2082C185.777 79.8714 186.424 82.4102 187.694 84.4511C188.988 86.517 190.88 88.1099 193.394 89.23C195.907 90.35 198.919 90.9225 202.404 90.9225L202.454 90.9723Z" fill="black"/>
<path d="M259.028 100.057V22.351H270.751L271.373 35.916C273.837 31.0874 277.372 27.3041 281.926 24.5911C286.506 21.8781 291.708 20.5092 297.582 20.5092C303.456 20.5092 308.882 21.7288 313.313 24.1431C317.743 26.5574 321.178 30.2162 323.642 35.0946C326.106 39.973 327.35 46.1706 327.35 53.6624V100.082H314.408V55.0563C314.408 47.2408 312.69 41.3917 309.231 37.484C305.796 33.5763 300.917 31.6349 294.67 31.6349C290.364 31.6349 286.506 32.6803 283.096 34.7959C279.711 36.9116 276.998 39.9481 275.007 43.8807C272.991 47.8382 271.995 52.7415 271.995 58.6155V100.082H259.053L259.028 100.057Z" fill="black"/>
<path d="M372.825 101.924C366.553 101.924 361.301 100.829 357.095 98.6134C352.888 96.3982 349.752 93.4861 347.686 89.8273C345.621 86.1685 344.6 82.1862 344.6 77.8802C344.6 72.6285 345.969 68.1981 348.682 64.5393C351.395 60.8805 355.253 58.1177 360.256 56.2261C365.234 54.3345 371.133 53.3638 377.903 53.3638H398.412C398.412 48.5351 397.665 44.503 396.172 41.2673C394.678 38.0316 392.513 35.5924 389.7 33.9497C386.863 32.307 383.354 31.4856 379.147 31.4856C374.219 31.4856 369.938 32.7301 366.354 35.1942C362.745 37.6583 360.554 41.3171 359.733 46.1457H346.467C347.089 40.5953 348.956 35.9409 352.092 32.1825C355.228 28.4242 359.21 25.5618 364.039 23.5458C368.868 21.5297 373.895 20.5341 379.147 20.5341C386.34 20.5341 392.339 21.8532 397.118 24.4667C401.896 27.0801 405.456 30.7389 407.845 35.4182C410.21 40.0975 411.379 45.623 411.379 51.9948V100.107H399.806L399.034 86.3925C398.014 88.558 396.694 90.574 395.102 92.4905C393.509 94.3822 391.642 96.0249 389.476 97.4187C387.311 98.8126 384.872 99.9077 382.159 100.729C379.446 101.55 376.335 101.974 372.825 101.974V101.924ZM374.841 90.9723C378.45 90.9723 381.711 90.2256 384.623 88.7322C387.56 87.2388 390.049 85.1729 392.09 82.5595C394.156 79.9461 395.724 77.034 396.794 73.8481C397.864 70.6622 398.412 67.3269 398.412 63.8175V63.3446H378.973C373.945 63.3446 369.863 63.9419 366.802 65.1117C363.715 66.3065 361.5 67.9492 360.181 70.0399C358.837 72.1556 358.165 74.545 358.165 77.2082C358.165 79.8714 358.812 82.4102 360.082 84.4511C361.376 86.517 363.267 88.1099 365.781 89.23C368.295 90.35 371.307 90.9225 374.791 90.9225L374.841 90.9723Z" fill="black"/>
<path d="M118.575 101.924C111.282 101.924 104.736 100.256 98.9863 96.9209C93.2367 93.5857 88.7068 88.8566 85.4213 82.7337C82.1359 76.6108 80.4932 69.4924 80.4932 61.3783C80.4932 53.2642 82.1608 45.8221 85.496 39.7241C88.8312 33.6012 93.411 28.8722 99.2103 25.5369C105.01 22.2017 111.581 20.5341 118.873 20.5341C126.166 20.5341 132.662 22.2017 138.387 25.5369C144.087 28.8722 148.617 33.5764 151.952 39.6495C155.287 45.7226 156.955 52.9157 156.955 61.2289C156.955 69.5421 155.262 76.6357 151.877 82.7337C148.492 88.8566 143.912 93.5857 138.163 96.9209C132.413 100.256 125.867 101.924 118.575 101.924ZM118.575 90.8229C123.005 90.8229 127.112 89.7278 130.92 87.5126C134.728 85.2974 137.814 81.987 140.179 77.5567C142.543 73.1263 143.713 67.7003 143.713 61.204C143.713 54.7078 142.568 49.1574 140.254 44.7768C137.939 40.421 134.902 37.1107 131.144 34.9204C127.386 32.7052 123.304 31.6101 118.898 31.6101C114.493 31.6101 110.336 32.7052 106.478 34.9204C102.62 37.1356 99.5339 40.421 97.2191 44.7768C94.9044 49.1574 93.7594 54.6082 93.7594 61.204C93.7594 67.7998 94.9044 73.1263 97.2191 77.5567C99.5339 81.987 102.57 85.2974 106.329 87.5126C110.087 89.7278 114.169 90.8229 118.575 90.8229Z" fill="black"/>
</svg>
