<svg width="122" height="130" viewBox="0 0 122 130" fill="none" xmlns="http://www.w3.org/2000/svg">
<path d="M49.8828 122.347L52.4753 89.968C52.9044 84.5148 46.6646 81.0284 42.0696 84.1572L15.5369 102.358C12.3544 104.539 7.93827 103.574 5.98944 100.284L0.858123 91.5413C-1.10859 88.1979 0.339627 83.9427 3.93334 82.3872L32.5936 70.0863C37.8859 67.8157 37.868 60.4673 32.5758 58.2324L4.25517 46.1819C0.661452 44.6621 -0.786761 40.4248 1.12631 37.0814L5.70338 29.0715C7.61645 25.746 12.0326 24.7448 15.233 26.9081L42.2842 45.1628C46.897 48.2737 53.1547 44.7158 52.6362 39.2448L49.6146 7.04437C49.257 3.25399 52.3144 -0.0178986 56.212 -0.0178986H65.7774C69.6929 -0.0178986 72.7503 3.27187 72.3569 7.08013L69.1566 39.066C68.6023 44.5549 74.8958 48.1665 79.5265 45.0019L106.041 26.9439C109.26 24.7448 113.711 25.7639 115.625 29.1252L119.951 36.7953C121.829 40.103 120.398 44.2688 116.876 45.8243L88.0906 58.4649C82.852 60.7713 82.8877 68.0481 88.1442 70.3009L117.108 82.7269C120.684 84.2645 122.133 88.484 120.219 91.8095L115.625 99.8373C113.729 103.163 109.313 104.164 106.095 102.019L79.3834 84.05C74.7706 80.939 68.5308 84.5148 69.0493 89.968L72.0709 122.204C72.4284 125.994 69.3711 129.266 65.4734 129.266H56.4802C52.6183 129.266 49.5789 126.048 49.8828 122.294V122.347Z" fill="#FFA9DA"/>
</svg>
