<svg width="432" height="472" viewBox="0 0 432 472" fill="none" xmlns="http://www.w3.org/2000/svg">
<g clip-path="url(#clip0_6_79)">
<path d="M178.03 446.4L187.317 328.261C188.904 308.336 166.569 295.641 150.229 307.102L55.542 373.518C44.1983 381.512 28.3877 377.985 21.511 365.936L3.17302 334.021C-3.82126 321.855 1.29221 306.279 14.164 300.637L116.433 255.791C135.3 247.504 135.242 220.702 116.375 212.532L15.222 168.568C2.40894 162.985 -2.82208 147.585 4.05466 135.36L20.3942 106.149C27.2122 93.9821 42.964 90.338 54.4253 98.2139L150.935 164.865C167.392 176.268 189.668 163.22 187.846 143.295L177.09 25.8025C175.797 11.9903 186.729 0.0588322 200.6 0.0588322H234.69C248.62 0.0588322 259.552 12.1078 258.2 25.9788L246.739 142.707C244.799 162.749 267.193 175.915 283.709 164.395L378.337 98.5078C389.857 90.5143 405.727 94.2172 412.486 106.501L427.944 134.478C434.585 146.586 429.531 161.75 416.953 167.451L314.272 213.59C295.581 221.995 295.699 248.503 314.448 256.732L417.776 302.106C430.53 307.69 435.702 323.089 428.884 335.256L412.486 364.585C405.727 376.692 389.916 380.395 378.513 372.519L283.238 306.985C266.722 295.641 244.505 308.689 246.327 328.614L257.083 446.224C258.376 460.036 247.444 471.967 233.573 471.967H201.482C187.728 471.967 176.855 460.212 177.913 446.518L178.03 446.4Z" fill="black"/>
</g>
<defs>
<clipPath id="clip0_6_79">
<rect width="432" height="471.85" fill="white"/>
</clipPath>
</defs>
</svg>
