<svg width="218" height="72" viewBox="0 0 218 72" fill="none" xmlns="http://www.w3.org/2000/svg">
<g id="Group">
<path id="Vector" d="M198.798 54.699C136.65 76.1342 71.0448 44.6523 9.30385 68.7797C3.26564 70.9368 -0.241788 64.6098 0.0129883 59.4549V17.3402C0.21681 11.1067 2.94292 3.86254 9.30385 1.66297C74.6201 -7.91664 133.448 38.1895 198.798 26.2574C203.928 24.9411 208.089 27.302 208.089 32.0833V42.5631C207.8 48.0154 203.868 52.8561 198.798 54.699Z" fill="#FF8FD4"/>
<g id="Group_2">
<path id="Vector_2" d="M167.792 12.6354C177.176 11.336 187.274 13.2638 195.571 17.7988C202.645 21.663 215.605 32.3976 218 40.474C216.862 44.5504 213.762 48.2956 211.129 51.5398C202.577 62.0451 190.866 70.2829 177.125 71.7011C164.845 73.0769 152.285 69.1618 142.476 61.7648C138.756 58.9623 126.985 47.9984 126.493 43.1831C126.204 40.3126 130 36.1173 131.724 33.9007C140.93 22.0536 152.837 14.5207 167.783 12.6439L167.792 12.6354Z" fill="#FFA9DA"/>
<path id="Vector_3" d="M167.979 19.5738C171.316 18.8944 175.325 19.1152 178.696 19.5823C192.327 21.4761 202.28 30.2234 210.314 40.8137L208.565 43.2086C200.335 54.3168 190.425 62.4612 176.454 64.5504C173.27 65.1449 169.533 64.8731 166.34 64.4145C152.887 62.4782 142.212 53.9092 134.263 43.302C135.079 41.8582 135.97 40.4655 136.947 39.1237C144.48 28.8477 155.384 21.595 167.979 19.5738Z" fill="#F4FF8A"/>
<path id="Vector_4" d="M169.269 23.5568L169.601 23.5144C174.382 22.9963 179.24 24.1428 183.01 27.2087C186.892 30.3594 188.896 35.0303 189.405 39.939C189.949 45.1364 188.599 50.2999 185.227 54.3424C182.017 58.1895 177.728 60.2022 172.794 60.6523C172.514 60.6693 172.225 60.6778 171.936 60.6778C171.656 60.6778 171.367 60.6778 171.078 60.6693C170.79 60.6608 170.509 60.6438 170.229 60.6269C169.949 60.6014 169.66 60.5759 169.38 60.542C169.1 60.508 168.811 60.4655 168.531 60.423C168.25 60.3806 167.97 60.3211 167.69 60.2617C167.41 60.2022 167.138 60.1343 166.858 60.0663C166.586 59.9984 166.306 59.922 166.034 59.8371C165.762 59.7521 165.49 59.6672 165.227 59.5738C164.955 59.4804 164.692 59.3785 164.429 59.2681C164.165 59.1662 163.902 59.0472 163.647 58.9283C163.384 58.8095 163.129 58.6906 162.875 58.5547C162.62 58.4273 162.374 58.2914 162.119 58.147C161.872 58.0112 161.626 57.8583 161.388 57.7139C161.151 57.5611 160.904 57.4082 160.675 57.2468C160.437 57.0855 160.208 56.9156 159.979 56.7458C159.732 56.5674 159.495 56.3806 159.257 56.1937C159.019 55.9984 158.79 55.8031 158.569 55.5993C158.34 55.3955 158.127 55.1916 157.906 54.9708C157.694 54.7585 157.482 54.5377 157.278 54.3169C157.074 54.0961 156.879 53.8668 156.684 53.629C156.488 53.3912 156.301 53.1534 156.123 52.9156C155.945 52.6693 155.766 52.4231 155.596 52.1683C155.427 51.9135 155.265 51.6587 155.112 51.404C154.96 51.1407 154.807 50.8774 154.671 50.6141C154.526 50.3509 154.391 50.0791 154.263 49.7988C154.136 49.5271 154.017 49.2468 153.898 48.9666C153.788 48.6863 153.677 48.4061 153.575 48.1173C153.473 47.8286 153.38 47.5398 153.295 47.2511C153.21 46.9623 153.134 46.6651 153.057 46.3763C152.989 46.0791 152.921 45.7819 152.87 45.4846C152.811 45.1874 152.768 44.8902 152.726 44.5844C152.684 44.2787 152.641 43.973 152.616 43.6587C152.59 43.353 152.565 43.0388 152.548 42.7331C152.531 42.4273 152.531 42.1131 152.531 41.8073C152.531 41.5016 152.539 41.1874 152.556 40.8817C152.573 40.5759 152.599 40.2617 152.633 39.956C152.667 39.6502 152.7 39.3445 152.751 39.0303C152.802 38.7246 152.853 38.4188 152.913 38.1131C152.972 37.8074 153.049 37.5101 153.125 37.2044C153.202 36.9072 153.286 36.6099 153.38 36.3127C153.473 36.0154 153.575 35.7267 153.677 35.4294C153.788 35.1407 153.898 34.8519 154.017 34.5632C154.136 34.2744 154.263 33.9942 154.399 33.7139C154.535 33.4337 154.671 33.1619 154.824 32.8902C154.968 32.6184 155.129 32.3466 155.291 32.0834C155.452 31.8201 155.622 31.5568 155.792 31.3021C155.97 31.0473 156.149 30.7925 156.335 30.5462C159.605 26.2745 164.013 24.2193 169.252 23.5229L169.269 23.5568Z" fill="#FFA9DA"/>
<path id="Vector_5" d="M172.624 27.3615C172.803 27.3445 172.981 27.3275 173.168 27.319C175.826 27.1407 178.467 28.5334 180.369 30.3084C182.161 31.9899 183.8 34.3763 183.826 36.9156C183.834 38.4188 183.605 39.1407 182.552 40.2107C181.941 40.1088 181.49 40.0324 180.947 39.7012C180.352 39.3275 174.382 32.6523 173.04 31.3615C172.658 30.9963 171.809 30.3593 171.563 29.9262C171.427 29.6969 171.435 29.3997 171.367 29.1449C171.571 28.2787 172.013 27.939 172.641 27.37L172.624 27.3615Z" fill="#F4FF8A"/>
</g>
<g id="Group_3">
<path id="Vector_6" d="M21.4146 25.4168C20.0218 21.5866 18.68 17.731 17.3976 13.8584C16.0812 13.8754 15.4273 13.8754 14.1194 13.8499C15.8265 18.8096 17.6608 23.7098 19.5632 28.593C21.0918 28.5335 21.8562 28.4996 23.3763 28.4232C25.0748 23.3956 26.7139 18.3595 28.2935 13.2979C26.9857 13.3913 26.3402 13.4338 25.0324 13.5187C23.8689 17.4932 22.6715 21.4677 21.4146 25.4168Z" fill="white"/>
<path id="Vector_7" d="M29.8221 28.1004C31.0536 28.0409 31.665 28.0155 32.8964 27.9645C32.8115 22.9794 32.7266 17.9857 32.6417 13.0006C31.4102 13.077 30.7988 13.1195 29.5674 13.2044C29.6523 18.1726 29.7372 23.1322 29.8221 28.1004Z" fill="white"/>
<path id="Vector_8" d="M42.2552 21.8668C43.597 21.8838 44.2765 21.9008 45.6183 21.9773C45.4994 22.9454 45.1427 23.7352 44.5397 24.3552C43.9367 24.9751 43.0535 25.2639 41.8815 25.2554C41.0493 25.2469 40.3274 25.06 39.7244 24.7034C39.1214 24.3467 38.6544 23.8201 38.3232 23.1153C37.9919 22.4104 37.8136 21.5441 37.7966 20.5165C37.7796 19.5144 37.924 18.6312 38.2212 17.8838C38.527 17.128 38.9856 16.542 39.597 16.1174C40.2085 15.6927 40.9643 15.4804 41.8561 15.4889C42.6629 15.4889 43.3253 15.6843 43.8433 16.0325C44.3614 16.3807 44.7265 16.8732 44.9473 17.4847C46.3061 17.5526 46.9941 17.5951 48.3529 17.731C47.9962 16.1768 47.2573 14.9029 46.1193 13.9603C44.9813 13.0176 43.5546 12.4911 41.8306 12.4741C40.3104 12.4571 39.0111 12.8223 37.941 13.5441C36.8624 14.266 36.0471 15.2596 35.4781 16.491C34.9091 17.7225 34.6374 19.1153 34.6629 20.6524C34.6883 22.1811 34.9941 23.4804 35.5801 24.593C36.1661 25.7055 36.9728 26.5547 38.0089 27.1662C39.0365 27.7777 40.234 28.0919 41.5843 28.1089C42.2552 28.1174 42.8412 28.0579 43.3507 27.922C43.8603 27.7862 44.3104 27.5823 44.6926 27.2936C45.0747 27.0133 45.4059 26.6651 45.6862 26.249C45.7966 26.9539 45.8476 27.3021 45.958 27.9985C47.0875 28.0579 47.6565 28.1004 48.786 28.2023C48.735 25.3997 48.6926 22.6057 48.6416 19.8032C46.51 19.5824 44.3444 19.4804 42.2043 19.4634C42.2212 20.4316 42.2297 20.9157 42.2467 21.8753L42.2552 21.8668Z" fill="white"/>
<path id="Vector_9" d="M50.8922 28.3977C52.1236 28.5336 52.7351 28.6015 53.9665 28.7459C53.8816 23.7862 53.7967 18.8266 53.7118 13.8669C52.4803 13.6801 51.8689 13.5952 50.6375 13.4168C50.7224 18.4104 50.8073 23.4041 50.8922 28.3977Z" fill="white"/>
<path id="Vector_10" d="M60.3103 14.8775C58.6372 19.5484 56.9812 24.2193 55.3336 28.9072C56.6245 29.0601 57.2699 29.1365 58.5523 29.2894C58.96 28.058 59.1638 27.438 59.5799 26.2151C61.7201 26.4868 62.7901 26.6312 64.9217 26.9115C65.3803 28.2363 65.6012 28.8987 66.0598 30.2151C67.3591 30.3764 68.0045 30.4529 69.3039 30.6142C67.461 25.5611 65.6266 20.4996 63.8177 15.438C62.4164 15.2172 61.7115 15.1068 60.3103 14.886V14.8775ZM60.3612 23.8881C61.0661 21.7905 61.4143 20.7544 62.1192 18.6737C62.7646 20.576 63.4185 22.4868 64.064 24.3892C62.5863 24.1854 61.8389 24.0835 60.3612 23.8881Z" fill="white"/>
<path id="Vector_11" d="M81.5758 24.8563C81.0917 24.5336 80.5567 24.2363 79.9707 23.973C79.631 23.8202 79.2998 23.6673 79.0026 23.5229C78.7054 23.3786 78.442 23.2257 78.2212 23.0728C78.0004 22.92 77.8221 22.7501 77.6947 22.5548C77.5673 22.3595 77.4994 22.1556 77.4994 21.9179C77.4994 21.6716 77.5504 21.4847 77.6693 21.3319C77.7882 21.1875 77.941 21.0856 78.1448 21.0431C78.3487 20.9922 78.5695 20.9922 78.8242 21.0431C79.096 21.0856 79.3338 21.179 79.5461 21.3234C79.7584 21.4677 79.9283 21.6461 80.0642 21.8499C80.2 22.0537 80.268 22.2745 80.268 22.5038C81.3126 22.6482 81.8391 22.7246 82.8837 22.869C82.8497 22.1981 82.6544 21.6036 82.2977 21.0686C81.941 20.5336 81.4654 20.092 80.871 19.7523C80.2765 19.4126 79.5885 19.1748 78.8072 19.0559C78.0684 18.9455 77.3975 18.9709 76.8115 19.1323C76.2255 19.2937 75.7669 19.5909 75.4357 20.024C75.1045 20.4571 74.9431 21.0092 74.9601 21.6886C74.9771 22.5038 75.2234 23.1917 75.716 23.7437C76.2001 24.2958 76.8964 24.7883 77.7966 25.1875C78.1703 25.3573 78.5355 25.5187 78.8837 25.6886C79.2319 25.8584 79.5376 26.0282 79.8009 26.2066C80.0642 26.3849 80.2765 26.5803 80.4208 26.7926C80.5737 27.0049 80.6502 27.2512 80.6502 27.5144C80.6502 27.7777 80.5907 27.9815 80.4718 28.1429C80.3444 28.2958 80.1746 28.4062 79.9538 28.4656C79.733 28.5251 79.4782 28.5421 79.1725 28.4996C78.8243 28.4571 78.527 28.3552 78.2637 28.1854C78.0005 28.024 77.7966 27.8117 77.6523 27.5654C77.4994 27.3191 77.423 27.0389 77.406 26.7331C76.3699 26.5972 75.8603 26.5293 74.8242 26.3849C74.8667 27.1663 75.0875 27.8457 75.4697 28.4232C75.8518 29.0007 76.3784 29.4677 77.0323 29.8159C77.6862 30.1641 78.4166 30.3934 79.2234 30.4868C80.0981 30.5972 80.8285 30.5293 81.423 30.3C82.0174 30.0707 82.4676 29.7225 82.7733 29.2639C83.079 28.8053 83.2234 28.2788 83.2149 27.6843C83.2064 27.0134 83.045 26.4529 82.7478 26.0028C82.4506 25.5527 82.0599 25.1705 81.5758 24.8478V24.8563Z" fill="white"/>
<path id="Vector_12" d="M91.4103 27.5654C91.4188 28.041 91.3423 28.4402 91.1725 28.7544C91.0026 29.0686 90.7648 29.2979 90.4336 29.4253C90.1109 29.5527 89.7118 29.5952 89.2362 29.5442C88.7776 29.4932 88.3784 29.3658 88.0472 29.1535C87.716 28.9497 87.4613 28.661 87.2914 28.3043C87.1216 27.9476 87.0281 27.523 87.0196 27.0389C86.9772 24.8393 86.9347 22.6398 86.9007 20.4402C85.9326 20.3043 85.4485 20.2364 84.4804 20.092C84.5228 22.3 84.5653 24.5081 84.5992 26.7162C84.6162 27.7098 84.837 28.559 85.2532 29.2554C85.6693 29.9518 86.2298 30.5039 86.9262 30.9115C87.6226 31.3106 88.3954 31.5569 89.2362 31.6503C90.0939 31.7438 90.8753 31.6673 91.5801 31.4211C92.2765 31.1748 92.837 30.7586 93.2447 30.1641C93.6608 29.5697 93.8561 28.7884 93.8391 27.8202C93.7967 25.6631 93.7542 23.506 93.7202 21.3489C92.7521 21.23 92.268 21.162 91.2999 21.0346C91.3423 23.2087 91.3848 25.3828 91.4188 27.5654H91.4103Z" fill="white"/>
<path id="Vector_13" d="M98.3062 21.9093C96.9899 25.2724 95.6905 28.6354 94.3911 32.007C95.4018 32.1089 95.9113 32.1513 96.9219 32.2448C97.2446 31.353 97.406 30.9114 97.7287 30.0282C99.4102 30.1895 100.251 30.266 101.933 30.4019C102.289 31.336 102.468 31.8031 102.824 32.7373C103.843 32.8137 104.353 32.8477 105.372 32.9157C103.92 29.3573 102.485 25.7904 101.058 22.215C99.9538 22.0962 99.4017 22.0367 98.2977 21.9093H98.3062ZM98.3487 28.3552C98.9007 26.8435 99.1809 26.0876 99.7329 24.5845C100.344 26.2065 100.65 27.0133 101.262 28.6269C100.098 28.525 99.5121 28.4656 98.3487 28.3552Z" fill="white"/>
<path id="Vector_14" d="M112.794 28.0325C112.31 27.7692 111.775 27.5314 111.189 27.3276C110.85 27.2087 110.518 27.0898 110.221 26.9794C109.924 26.8605 109.661 26.7416 109.44 26.6142C109.219 26.4868 109.041 26.3425 108.913 26.1726C108.786 26.0028 108.718 25.8159 108.718 25.5951C108.718 25.3743 108.769 25.1875 108.888 25.0516C109.007 24.9072 109.16 24.8138 109.363 24.7544C109.567 24.6949 109.788 24.6864 110.043 24.7119C110.315 24.7289 110.552 24.8053 110.765 24.9242C110.977 25.0431 111.147 25.196 111.283 25.3743C111.419 25.5527 111.486 25.7565 111.486 25.9688C112.531 26.0367 113.058 26.0707 114.102 26.1217C114.068 25.5102 113.873 24.9667 113.516 24.4996C113.159 24.0325 112.684 23.6588 112.089 23.3871C111.495 23.1068 110.807 22.9454 110.026 22.8775C109.287 22.8181 108.616 22.8775 108.03 23.0643C107.444 23.2512 106.985 23.5484 106.654 23.9646C106.323 24.3807 106.162 24.8987 106.179 25.5272C106.196 26.283 106.442 26.903 106.934 27.3871C107.419 27.8711 108.115 28.2873 109.015 28.6015C109.389 28.7374 109.754 28.8648 110.102 29.0006C110.45 29.1365 110.756 29.2724 111.019 29.4168C111.283 29.5611 111.495 29.731 111.639 29.9093C111.792 30.0962 111.869 30.317 111.869 30.5633C111.869 30.8011 111.809 30.9964 111.69 31.1493C111.563 31.3021 111.393 31.4125 111.172 31.4805C110.951 31.5484 110.697 31.5824 110.391 31.5654C110.043 31.5484 109.745 31.472 109.482 31.3361C109.219 31.2002 109.015 31.0219 108.871 30.8011C108.718 30.5802 108.641 30.3255 108.624 30.0452C107.588 29.9773 107.079 29.9433 106.043 29.8669C106.085 30.5802 106.306 31.2002 106.688 31.7098C107.07 32.2193 107.597 32.6185 108.251 32.9072C108.905 33.196 109.635 33.3573 110.442 33.3913C111.317 33.4338 112.047 33.3234 112.641 33.0686C113.236 32.8138 113.686 32.4656 113.992 32.0155C114.298 31.5654 114.442 31.0728 114.433 30.5293C114.425 29.9093 114.264 29.4083 113.966 29.0091C113.669 28.6185 113.278 28.2958 112.794 28.0325Z" fill="white"/>
<path id="Vector_15" d="M18.4084 48.542C19.6738 48.4741 20.3107 48.4486 21.5761 48.3976C21.5167 46.2745 21.4487 44.1428 21.3808 42.0197C23.4785 41.9348 24.523 41.9008 26.6207 41.8414C26.5867 40.8392 26.5782 40.3382 26.5443 39.3361C24.4466 39.404 23.402 39.4465 21.3044 39.5314C21.2619 38.0961 21.2364 37.3913 21.194 35.973C23.4105 35.8711 25.6356 35.7692 27.8521 35.6758C27.8182 34.6567 27.8012 34.1386 27.7757 33.1195C24.4976 33.2809 21.2279 33.4592 17.9498 33.6036C18.1112 38.5802 18.264 43.5569 18.4084 48.5335V48.542Z" fill="white"/>
<path id="Vector_16" d="M29.8646 48.1768C31.13 48.1598 31.767 48.1514 33.0324 48.1514C32.8795 43.0728 32.7266 37.9943 32.5738 32.9242C31.3084 32.9751 30.6714 33.0006 29.406 33.0601C29.5589 38.1047 29.7203 43.1407 29.8646 48.1853V48.1768Z" fill="white"/>
<path id="Vector_17" d="M44.939 42.9793C42.7139 39.5484 40.4634 36.1428 38.1449 32.7713C36.8795 32.7883 36.2426 32.8053 34.9772 32.8392C35.1301 37.9433 35.2914 43.0473 35.4358 48.1513C36.7012 48.1513 37.3382 48.1598 38.6035 48.1853C38.5016 44.8053 38.3997 41.4337 38.2978 38.0537C40.6078 41.4592 42.8498 44.8987 45.0834 48.3552C46.3488 48.4061 46.9857 48.4316 48.2511 48.491C48.0982 43.3191 47.9454 38.1471 47.7925 32.9751C46.5271 32.8987 45.8901 32.8647 44.6247 32.8223C44.7267 36.2108 44.8286 39.5908 44.9305 42.9793H44.939Z" fill="white"/>
<path id="Vector_18" d="M54.6119 33.5356C52.9558 38.5378 51.3083 43.5484 49.6862 48.559C51.011 48.6354 51.6734 48.6524 53.0068 48.7288C53.4144 47.4125 53.6182 46.7501 54.0174 45.4422C56.2169 45.5781 57.321 45.6545 59.5206 45.7989C60.0047 47.1492 60.2509 47.8286 60.735 49.1705C62.0683 49.2554 62.7393 49.2978 64.0726 49.3743C62.1023 44.2108 60.1575 39.0473 58.2212 33.8669C56.7775 33.731 56.0556 33.663 54.6034 33.5356H54.6119ZM54.7902 42.9539C55.3677 41.094 55.9452 39.2426 56.5227 37.3828C57.2106 39.3276 57.907 41.2809 58.6034 43.2257C57.0747 43.1153 56.3104 43.0558 54.7902 42.9539Z" fill="white"/>
<path id="Vector_19" d="M74.9943 45.0686C72.7013 41.68 70.4422 38.2745 68.2002 34.852C66.9348 34.7246 66.2979 34.6652 65.0325 34.5378C65.1854 39.5144 65.3382 44.4911 65.4911 49.4677C66.7565 49.5526 67.3934 49.5866 68.6588 49.6715C68.5569 46.4444 68.455 43.2087 68.3531 39.9815C70.5866 43.37 72.8542 46.7331 75.1387 50.0877C76.4041 50.1641 77.041 50.2066 78.3064 50.283C78.1535 45.4592 78.0006 40.6354 77.8477 35.8117C76.5824 35.6928 75.9454 35.6248 74.68 35.4974C74.7819 38.6822 74.8838 41.8754 74.9858 45.0601L74.9943 45.0686Z" fill="white"/>
<path id="Vector_20" d="M84.9219 39.5484C85.4909 39.2172 86.1959 39.0898 87.0281 39.1492C87.9029 39.2172 88.6162 39.4719 89.1852 39.9051C89.7457 40.3382 90.1279 40.9157 90.3147 41.6375C91.699 41.731 92.3954 41.7734 93.7797 41.8584C93.457 40.2787 92.7011 39.0218 91.5037 38.0707C90.3062 37.1195 88.7945 36.559 86.9771 36.3976C85.4994 36.2702 84.2256 36.4656 83.1725 37.0006C82.1194 37.5357 81.3126 38.3339 80.7776 39.404C80.234 40.4741 79.9878 41.7479 80.0387 43.2257C80.0812 44.6779 80.4124 45.9858 81.0323 47.1407C81.6438 48.2957 82.5016 49.2129 83.5971 49.8923C84.4124 50.3934 85.3381 50.7331 86.3657 50.9029C86.3997 51.8286 86.4082 52.2872 86.4421 53.2129C87.0026 53.2384 87.2829 53.2469 87.8349 53.2723C88.1406 53.2893 88.3869 53.3403 88.5568 53.4422C88.7266 53.5441 88.8201 53.697 88.8285 53.9178C88.8285 54.1471 88.7606 54.2999 88.5907 54.3934C88.4209 54.4783 88.1831 54.5208 87.8774 54.5038C86.8498 54.4613 86.3317 54.4443 85.2956 54.3934C85.3211 55.0728 85.3296 55.4125 85.3551 56.1004C86.561 56.1513 87.1725 56.1683 88.3784 56.2108C88.871 56.2278 89.3296 56.1598 89.7542 56.0154C90.1788 55.8711 90.5185 55.6333 90.7733 55.3191C91.0281 55.0048 91.147 54.5802 91.13 54.0622C91.113 53.5271 90.9602 53.1025 90.6884 52.7713C90.4082 52.4401 90.06 52.1938 89.6269 52.0324C89.2022 51.8711 88.7691 51.7777 88.3275 51.7522C88.319 51.4634 88.3105 51.3191 88.302 51.0303C89.7373 50.9879 90.9347 50.6312 91.8944 49.9602C93.0324 49.1704 93.7117 48.0409 93.9325 46.5887C92.5482 46.5208 91.8519 46.4868 90.4676 46.4104C90.3232 47.0728 89.975 47.5569 89.44 47.8881C88.905 48.2108 88.2001 48.3552 87.3253 48.3042C86.4931 48.2618 85.7797 48.0324 85.1852 47.6248C84.5907 47.2172 84.1236 46.6566 83.8009 45.9518C83.4782 45.2469 83.2998 44.4231 83.2659 43.4804C83.2319 42.5123 83.3593 41.697 83.6396 41.0346C83.9198 40.3722 84.3444 39.8711 84.9219 39.5399V39.5484Z" fill="white"/>
<path id="Vector_21" d="M99.8775 37.5951C98.2214 42.0962 96.5824 46.5972 94.9518 51.0983C96.2766 51.1407 96.9391 51.1662 98.2724 51.2002C98.68 50.0112 98.8839 49.4167 99.283 48.2363C101.483 48.3042 102.587 48.3297 104.786 48.3637C105.27 49.5526 105.517 50.1386 106.001 51.3106C107.334 51.3106 108.005 51.3106 109.338 51.3106C107.359 46.8095 105.415 42.3085 103.487 37.7819C102.043 37.714 101.321 37.6715 99.869 37.5951H99.8775ZM100.056 46.0027C100.752 43.9815 101.1 42.9794 101.788 40.9751C102.621 43.0473 103.037 44.0749 103.869 46.1131C102.34 46.0792 101.576 46.0537 100.056 46.0027Z" fill="white"/>
<path id="Vector_22" d="M120.489 45.3828C120.089 44.9157 119.571 44.5335 118.934 44.2533C118.298 43.973 117.584 43.7098 116.828 43.5144C116.378 43.3955 115.945 43.2766 115.554 43.1577C115.164 43.0389 114.816 42.903 114.527 42.7671C114.23 42.6227 114 42.4529 113.83 42.2405C113.661 42.0367 113.576 41.7904 113.559 41.5187C113.55 41.2299 113.618 40.9921 113.763 40.7968C113.907 40.6015 114.119 40.4571 114.382 40.3637C114.646 40.2703 114.943 40.2278 115.266 40.2448C115.614 40.2448 115.937 40.3127 116.217 40.4486C116.497 40.5845 116.726 40.7628 116.905 40.9837C117.083 41.2045 117.177 41.4507 117.185 41.7225C118.552 41.7055 119.24 41.6885 120.608 41.6461C120.548 40.8648 120.285 40.1938 119.809 39.6248C119.334 39.0643 118.705 38.6312 117.924 38.334C117.143 38.0367 116.242 37.8839 115.215 37.8839C114.247 37.8839 113.372 38.0197 112.608 38.3085C111.843 38.5972 111.249 39.0219 110.824 39.5909C110.399 40.1599 110.204 40.8478 110.23 41.6545C110.264 42.6312 110.603 43.4125 111.249 43.99C111.894 44.576 112.811 45.0346 113.992 45.3573C114.484 45.4932 114.968 45.6206 115.419 45.7565C115.877 45.8924 116.276 46.0367 116.633 46.1981C116.981 46.3594 117.261 46.5463 117.457 46.7756C117.652 46.9964 117.762 47.2681 117.771 47.5909C117.779 47.8966 117.703 48.1599 117.542 48.3722C117.38 48.5845 117.16 48.7458 116.871 48.8562C116.582 48.9751 116.242 49.0346 115.852 49.0431C115.402 49.0601 115.002 48.9836 114.663 48.8393C114.323 48.6949 114.051 48.4826 113.847 48.2108C113.644 47.939 113.533 47.6248 113.508 47.2596C112.157 47.2766 111.478 47.2851 110.128 47.2851C110.204 48.2108 110.493 48.9836 111.011 49.6121C111.529 50.2405 112.217 50.6991 113.075 51.0049C113.941 51.3021 114.901 51.438 115.954 51.404C117.092 51.3616 118.051 51.1408 118.833 50.7501C119.605 50.3594 120.191 49.8499 120.582 49.2469C120.973 48.6354 121.151 47.9815 121.126 47.2851C121.1 46.4868 120.888 45.8584 120.489 45.3913V45.3828Z" fill="white"/>
</g>
</g>
</svg>
